HIERARCHY
ROOT Hips
{
	OFFSET 0.00000 0.00000 0.00000
	CHANNELS 6 Xposition Yposition Zposition Zrotation Yrotation Xrotation 
	JOINT LHipJoint
	{
		OFFSET 0 0 0
		CHANNELS 3 Zrotation Yrotation Xrotation
		JOINT LeftUpLeg
		{
			OFFSET 1.57338 -1.94743 0.52196
			CHANNELS 3 Zrotation Yrotation Xrotation
			JOINT LeftLeg
			{
				OFFSET 2.60333 -7.15259 0.00000
				CHANNELS 3 Zrotation Yrotation Xrotation
				JOINT LeftFoot
				{
					OFFSET 2.77855 -7.63400 0.00000
					CHANNELS 3 Zrotation Yrotation Xrotation
					JOINT LeftToeBase
					{
						OFFSET 0.19847 -0.54529 2.28466
						CHANNELS 3 Zrotation Yrotation Xrotation
						End Site
						{
							OFFSET 0.00000 -0.00000 1.17993
						}
					}
				}
			}
		}
	}
	JOINT RHipJoint
	{
		OFFSET 0 0 0
		CHANNELS 3 Zrotation Yrotation Xrotation
		JOINT RightUpLeg
		{
			OFFSET -1.61527 -1.94743 0.52196
			CHANNELS 3 Zrotation Yrotation Xrotation
			JOINT RightLeg
			{
				OFFSET -2.53829 -6.97390 0.00000
				CHANNELS 3 Zrotation Yrotation Xrotation
				JOINT RightFoot
				{
					OFFSET -2.80762 -7.71387 0.00000
					CHANNELS 3 Zrotation Yrotation Xrotation
					JOINT RightToeBase
					{
						OFFSET -0.30536 -0.83898 2.28801
						CHANNELS 3 Zrotation Yrotation Xrotation
						End Site
						{
							OFFSET -0.00000 -0.00000 1.21323
						}
					}
				}
			}
		}
	}
	JOINT LowerBack
	{
		OFFSET 0 0 0
		CHANNELS 3 Zrotation Yrotation Xrotation
		JOINT Spine
		{
			OFFSET -0.04381 1.99497 -0.19778
			CHANNELS 3 Zrotation Yrotation Xrotation
			JOINT Spine1
			{
				OFFSET -0.01959 2.01295 -0.04372
				CHANNELS 3 Zrotation Yrotation Xrotation
				JOINT Neck
				{
					OFFSET 0 0 0
					CHANNELS 3 Zrotation Yrotation Xrotation
					JOINT Neck1
					{
						OFFSET -0.05459 1.76913 0.09708
						CHANNELS 3 Zrotation Yrotation Xrotation
						JOINT Head
						{
							OFFSET 0.09461 1.77368 -0.11172
							CHANNELS 3 Zrotation Yrotation Xrotation
							End Site
							{
								OFFSET 0.03812 1.78157 -0.04834
							}
						}
					}
				}
				JOINT LeftShoulder
				{
					OFFSET 0 0 0
					CHANNELS 3 Zrotation Yrotation Xrotation
					JOINT LeftArm
					{
						OFFSET 3.50922 1.24034 -0.28866
						CHANNELS 3 Zrotation Yrotation Xrotation
						JOINT LeftForeArm
						{
							OFFSET 5.40188 -0.00000 0.00000
							CHANNELS 3 Zrotation Yrotation Xrotation
							JOINT LeftHand
							{
								OFFSET 3.68559 -0.00000 0.00000
								CHANNELS 3 Zrotation Yrotation Xrotation
								JOINT LeftFingerBase
								{
									OFFSET 0 0 0
									CHANNELS 3 Zrotation Yrotation Xrotation
									JOINT LeftHandIndex1
									{
										OFFSET 0.61753 -0.00000 0.00000
										CHANNELS 3 Zrotation Yrotation Xrotation
										End Site
										{
											OFFSET 0.49787 -0.00000 0.00000
										}
									}
								}
								JOINT LThumb
								{
									OFFSET 0 0 0
									CHANNELS 3 Zrotation Yrotation Xrotation
									End Site
									{
										OFFSET 0.50547 -0.00000 0.50547
									}
								}
							}
						}
					}
				}
				JOINT RightShoulder
				{
					OFFSET 0 0 0
					CHANNELS 3 Zrotation Yrotation Xrotation
					JOINT RightArm
					{
						OFFSET -2.95373 1.39649 -0.27346
						CHANNELS 3 Zrotation Yrotation Xrotation
						JOINT RightForeArm
						{
							OFFSET -6.10670 -0.00000 -0.00000
							CHANNELS 3 Zrotation Yrotation Xrotation
							JOINT RightHand
							{
								OFFSET -3.63052 -0.00000 0.00000
								CHANNELS 3 Zrotation Yrotation Xrotation
								JOINT RightFingerBase
								{
									OFFSET 0 0 0
									CHANNELS 3 Zrotation Yrotation Xrotation
									JOINT RightHandIndex1
									{
										OFFSET -0.58385 -0.00000 0.00000
										CHANNELS 3 Zrotation Yrotation Xrotation
										End Site
										{
											OFFSET -0.47071 -0.00000 0.00000
										}
									}
								}
								JOINT RThumb
								{
									OFFSET 0 0 0
									CHANNELS 3 Zrotation Yrotation Xrotation
									End Site
									{
										OFFSET -0.47790 -0.00000 0.47790
									}
								}
							}
						}
					}
				}
			}
		}
	}
}
MOTION
Frames: 8
Frame Time: .0083333
-0.2009 18.6574 0.9823 0 0 0 0 0 0 -21 0 0 0 0 0 0 0 0 0 0 0 0 0 0 21 0 0 0 0 0 0 0 0 0 0 0 0 0 0 0 0 0 0 0 0 0 0 -16 0 0 21 0 0 11 0 0 0 -8 0 0 0 0 0 0 0 0 0 0 0 0 0 0 0 0 0 0 0 0 8 0 0 0 0 0 0 0 0 0 0 0 0 0 0 0 0 0
-0.2009 18.6574 0.9823 3.0198 -23.9596 -0.3594 0.0000 0.0000 0.0000 -14.0825 -3.9194 -6.7208 2.4959 9.8304 28.4292 0.2747 9.1297 -17.0748 0.6913 -5.3152 -14.8098 0.0000 0.0000 0.0000 19.1235 14.4036 -2.7934 -2.4280 -9.7058 28.0292 -1.1234 -12.7230 -28.2756 -0.0033 -0.3712 1.0200 -1.3733 1.5235 2.7520 -1.0255 1.9877 1.3278 -0.3378 0.9891 -0.1916 -4.0380 0.5095 -13.9793 9.0901 0.3096 9.5911 3.5460 0.6388 5.1533 -0.0000 0.0000 0.0000 -64.6502 -24.7070 3.4301 16.5948 -26.3205 -3.9060 -0.0000 0.0000 -60.0666 18.0886 27.0002 8.4348 -7.1250 0.0000 -0.0000 -13.4607 57.6621 -4.2236 -0.0000 0.0000 0.0000 65.5423 17.6863 41.6829 -21.1216 31.9701 -6.1142 0.0000 -0.0000 -18.3956 -14.2434 -2.0397 0.5176 7.1250 -0.0000 -0.0000 9.9010 -31.9812 3.1959
-0.2284 18.6588 0.9629 2.9784 -23.7519 -0.4006 0.0000 0.0000 0.0000 -13.8951 -3.8929 -6.7881 2.5043 9.8457 28.4785 0.2471 9.1079 -16.6982 0.7750 -5.6210 -15.6885 0.0000 0.0000 0.0000 19.2922 14.2582 -2.8053 -2.4363 -9.7212 28.0784 -1.1102 -12.7876 -28.2403 -0.0032 -0.3638 0.9995 -1.4147 1.5308 2.8367 -0.9943 1.9937 1.2582 -0.2867 0.9926 -0.3128 -3.9087 0.5752 -14.1652 8.9341 0.3798 9.8523 3.4873 0.6752 5.2609 0.0000 -0.0000 0.0000 -63.8735 -25.9293 3.1329 16.7320 -26.5031 -3.9670 -0.0000 0.0000 -60.6769 18.1928 27.1054 8.5162 -7.1250 0.0000 -0.0000 -13.4099 57.7886 -4.2484 0.0000 -0.0000 0.0000 65.0189 19.1398 41.3015 -21.5851 32.5049 -6.3614 0.0000 -0.0000 -19.5791 -14.0039 -1.9446 0.4849 7.1250 -0.0000 -0.0000 10.0800 -31.8783 3.2806
-0.2547 18.6589 0.9577 3.1024 -23.7331 -0.4884 0.0000 0.0000 0.0000 -13.9431 -3.9507 -6.6872 2.4947 9.8282 28.4221 0.2403 9.1426 -16.6494 0.7735 -5.6157 -15.6733 0.0000 0.0000 0.0000 19.2616 14.2376 -2.7950 -2.4527 -9.7514 28.1752 -1.1177 -12.7322 -28.2437 -0.0023 -0.3076 0.8452 -1.4787 1.6109 2.6724 -1.0516 2.1021 1.2359 -0.3082 1.0465 -0.2445 -3.7161 0.6464 -14.2701 8.7875 0.4455 10.0592 3.4190 0.7098 5.3392 -0.0000 0.0000 0.0000 -63.0338 -27.1544 3.0136 16.9206 -26.7529 -4.0515 -0.0000 0.0000 -61.5081 18.6412 27.5237 8.8604 -7.1250 0.0000 -0.0000 -13.1724 58.3006 -4.3343 -0.0000 0.0000 0.0000 64.5301 20.6518 40.7936 -21.9864 32.9617 -6.5784 0.0000 -0.0000 -20.9484 -13.8329 -1.5107 0.3719 7.1250 -0.0000 -0.0000 10.1645 -31.4342 3.4192
-0.2809 18.6579 0.9522 3.1939 -23.6593 -0.6423 0.0000 0.0000 0.0000 -13.9798 -4.0213 -6.4878 2.4933 9.8257 28.4142 0.2310 9.2174 -16.6112 0.8121 -5.7508 -16.0632 0.0000 0.0000 0.0000 19.2770 14.1197 -2.7003 -2.4658 -9.7754 28.2525 -1.1420 -12.6089 -28.3049 -0.0037 -0.3939 1.0824 -1.5344 1.6671 2.5867 -1.0709 2.1777 1.2379 -0.2963 1.0840 -0.1963 -3.6702 0.7169 -14.3776 8.7528 0.5292 10.2032 3.4112 0.7544 5.3966 -0.0000 0.0000 0.0000 -62.1240 -28.2665 3.1464 17.1593 -27.0672 -4.1595 -0.0000 0.0000 -62.8814 19.2175 27.4053 9.1151 -7.1250 0.0000 -0.0000 -12.4887 58.3115 -4.1079 -0.0000 0.0000 0.0000 63.9297 22.1267 40.2892 -22.4772 33.5122 -6.8475 0.0000 -0.0000 -22.4369 -13.3907 -1.1458 0.2727 7.1250 -0.0000 -0.0000 10.4707 -31.0552 3.6221
-0.3075 18.6569 0.9399 3.2042 -23.6146 -0.7501 0.0000 0.0000 0.0000 -13.9190 -4.0234 -6.3558 2.4882 9.8164 28.3842 0.2065 9.3790 -16.4729 0.8829 -5.9897 -16.7547 0.0000 0.0000 0.0000 19.3859 14.0599 -2.6642 -2.4813 -9.8038 28.3438 -1.1520 -12.5551 -28.3280 -0.0031 -0.3617 0.9938 -1.5653 1.7326 2.6040 -1.0591 2.2634 1.1959 -0.2708 1.1271 -0.2511 -3.6852 0.7728 -14.4517 8.7520 0.6021 10.3192 3.4227 0.7927 5.4402 -0.0000 0.0000 0.0000 -61.2560 -29.3849 3.0652 17.3368 -27.2996 -4.2407 -0.0000 0.0000 -64.1247 19.2628 26.8140 8.9585 -7.1250 0.0000 -0.0000 -12.1137 57.7329 -3.8129 -0.0000 0.0000 0.0000 63.3741 23.5704 39.5973 -22.9637 34.0490 -7.1179 0.0000 -0.0000 -23.7800 -12.4650 -1.2316 0.2722 7.1250 -0.0000 -0.0000 11.2090 -31.1220 3.8677
-0.3340 18.6552 0.9274 3.1608 -23.5543 -0.7760 0.0000 0.0000 0.0000 -13.7659 -4.1443 -6.3421 2.4875 9.8152 28.3804 0.2086 9.3875 -16.5113 0.8529 -5.8900 -16.4656 0.0000 0.0000 0.0000 19.5323 13.9877 -2.6811 -2.4938 -9.8266 28.4171 -1.1620 -12.5152 -28.3625 -0.0030 -0.3530 0.9699 -1.5444 1.8082 2.5989 -1.0499 2.3640 1.1483 -0.2769 1.1779 -0.2973 -3.6210 0.8105 -14.5454 8.7154 0.6427 10.3795 3.4062 0.8154 5.4724 0.0000 -0.0000 0.0000 -60.3980 -30.5939 2.9096 17.4919 -27.5017 -4.3120 -0.0000 0.0000 -65.1370 18.7115 25.9862 8.4414 -7.1250 0.0000 -0.0000 -12.2591 56.7892 -3.5792 0.0000 -0.0000 0.0000 62.8302 25.0366 38.7459 -23.4155 34.5401 -7.3725 0.0000 -0.0000 -25.1869 -12.0219 -1.6754 0.3567 7.1250 -0.0000 -0.0000 11.6145 -31.5565 3.8890
-0.3604 18.6554 0.9205 3.3288 -23.3910 -0.8917 0.0000 0.0000 0.0000 -13.8495 -4.2261 -6.2657 2.4841 9.8090 28.3603 0.2060 9.3480 -16.4312 0.8157 -5.7631 -16.0987 0.0000 0.0000 0.0000 19.4471 13.8454 -2.6543 -2.5052 -9.8473 28.4838 -1.2103 -12.3443 -28.5508 -0.0070 -0.5397 1.4830 -1.6940 1.8439 2.5338 -1.0870 2.4087 1.1036 -0.2312 1.2002 -0.3115 -3.6876 0.8505 -14.6396 8.8092 0.6885 10.5536 3.4556 0.8465 5.5389 -0.0000 0.0000 0.0000 -59.5813 -31.9113 2.4122 17.5789 -27.6147 -4.3523 -0.0000 0.0000 -65.6182 18.4355 25.7348 8.2358 -7.1250 0.0000 -0.0000 -12.4187 56.4810 -3.5338 -0.0000 0.0000 0.0000 62.2036 26.5016 38.0365 -23.8781 35.0351 -7.6365 0.0000 -0.0000 -26.9698 -12.4104 -1.9270 0.4240 7.1250 -0.0000 -0.0000 11.3407 -31.8188 3.7211
